<svg width="16" height="16" viewBox="0 0 16 16" fill="none" xmlns="http://www.w3.org/2000/svg">
<g id="Iconly/Regular/Bold/Password">
<g id="Password">
<path id="Password_2" fill-rule="evenodd" clip-rule="evenodd" d="M11.3413 9.7341C11.6173 9.7341 11.8413 9.5101 11.8413 9.2341V7.99943C11.8413 7.72343 11.6173 7.49943 11.3413 7.49943H7.54665C7.33065 6.7881 6.67598 6.26543 5.89465 6.26543C4.93865 6.26543 4.16065 7.04343 4.16065 7.99943C4.16065 8.9561 4.93865 9.7341 5.89465 9.7341C6.67598 9.7341 7.33065 9.21143 7.54665 8.49943H8.95465V9.2341C8.95465 9.5101 9.17865 9.7341 9.45465 9.7341C9.73065 9.7341 9.95465 9.5101 9.95465 9.2341V8.49943H10.8413V9.2341C10.8413 9.5101 11.0653 9.7341 11.3413 9.7341ZM5.11132 1.33276H10.8907C13.1493 1.33276 14.6673 2.9181 14.6673 5.27743V10.7221C14.6673 13.0814 13.1493 14.6661 10.89 14.6661H5.11132C2.85198 14.6661 1.33398 13.0814 1.33398 10.7221V5.27743C1.33398 2.9181 2.85198 1.33276 5.11132 1.33276ZM5.16005 8.00003C5.16005 7.5947 5.49005 7.26536 5.89472 7.26536C6.29938 7.26536 6.62938 7.5947 6.62938 8.00003C6.62938 8.4047 6.29938 8.73403 5.89472 8.73403C5.49005 8.73403 5.16005 8.4047 5.16005 8.00003Z" fill="white"/>
</g>
</g>
</svg>
